<?xml version="1.0" standalone="no"?>
<!DOCTYPE svg PUBLIC "-//W3C//DTD SVG 20010904//EN"
 "http://www.w3.org/TR/2001/REC-SVG-20010904/DTD/svg10.dtd">
<svg version="1.0" xmlns="http://www.w3.org/2000/svg"
 width="256.000000pt" height="256.000000pt" viewBox="0 0 256.000000 256.000000"
 preserveAspectRatio="xMidYMid meet">

<g transform="translate(0.000000,256.000000) scale(0.100000,-0.100000)"
fill="#000000" stroke="none">
<path d="M1095 2389 c-175 -25 -371 -111 -525 -230 -285 -220 -448 -608 -410
-974 46 -445 322 -799 738 -949 207 -74 484 -75 698 -2 411 140 694 497 746
943 37 321 -88 671 -324 904 -243 241 -588 356 -923 308z m382 -205 c517 -129
812 -693 634 -1207 -28 -81 -97 -207 -140 -257 l-36 -42 -600 1 c-330 1 -602
5 -605 9 -4 4 -1 314 5 690 9 587 12 684 25 693 38 26 201 98 259 114 147 39
300 39 458 -1z m-927 -889 c-6 -318 -12 -580 -13 -582 -8 -7 -93 137 -124 209
-102 236 -95 543 17 769 41 83 117 195 127 185 2 -1 -1 -263 -7 -581z m1000
-804 l165 -6 -84 -38 c-138 -63 -215 -80 -376 -81 -155 0 -249 18 -371 74
-137 62 -142 60 196 59 168 -1 379 -5 470 -8z"/>
<path d="M1241 2104 c-211 -57 -377 -237 -443 -481 -29 -109 -29 -297 0 -405
81 -299 310 -498 572 -498 151 1 272 52 385 163 60 60 135 164 135 188 0 3
-45 6 -100 6 l-101 1 -51 -54 c-225 -238 -573 -109 -664 246 -24 95 -16 262
18 356 91 255 319 375 526 277 79 -37 160 -121 206 -213 42 -84 46 -87 159
-89 l67 -1 -6 28 c-39 168 -184 360 -324 429 -124 62 -261 79 -379 47z"/>
</g>
</svg>
